<svg xmlns="http://www.w3.org/2000/svg" xmlns:xlink="http://www.w3.org/1999/xlink" width="720" height="400" viewBox="0 0 720 400">
  <defs>
    <linearGradient id="logo-fallback-a" x1="50%" x2="50%" y1="100%" y2="0%">
      <stop offset="0%" stop-color="#A7A9AC"/>
      <stop offset="100%" stop-color="#D1D3D4"/>
    </linearGradient>
    <path id="logo-fallback-b" d="M67.3942142,133 C30.3176007,133 0.351753629,107.805367 0.351753629,66.5 C0.351753629,21.1558667 37.0855186,0 57.4026301,0 C71.7933609,0 83.3077265,5.87416667 89.0604567,12.5906667 L89.0604567,3.18756667 L128.670587,3.18756667 L128.670587,61.6056 L89.0604567,61.6056 L89.0604567,57.6023 C89.0604567,42.6575333 84.3184616,31.4057333 72.1273042,31.4057333 C59.9405993,31.4057333 55.2075094,42.6575333 55.2075094,57.6023 L55.2075094,75.4021333 C55.2075094,90.3513333 59.9405993,101.603133 72.1273042,101.603133 C84.3184616,101.603133 89.0604567,90.3513333 89.0604567,75.4021333 L89.0604567,70.8712667 L128.670587,70.8712667 C128.675039,110.664867 102.943594,133 67.3942142,133 Z M202.926223,129.812433 L202.926223,104.449333 L208.002162,104.449333 L208.002162,79.4231667 C208.002162,71.7003 207.494568,64.6468667 202.926223,64.6468667 C198.518171,64.6468667 194.119025,70.1929667 191.24266,81.4403333 L191.24266,104.4449 L196.144947,104.4449 L196.144947,129.808 L137.237346,129.808 L137.237346,104.4449 L148.408863,104.4449 L148.408863,28.5418 L137.237346,28.5418 L137.237346,3.18313333 L191.24266,3.18313333 L191.24266,59.7790667 C196.99539,49.0326667 208.848151,38.7916667 224.592466,38.7916667 C239.655536,38.7916667 250.657855,51.3823333 250.657855,68.1802333 L250.657855,104.453767 L262.003022,104.453767 L262.003022,129.816867 L202.926223,129.816867 L202.926223,129.812433 Z M354.603278,77.7518 C341.735329,77.7518 341.227735,64.6513 335.305807,64.6513 C330.902208,64.6513 327.852192,69.6875667 324.975827,80.9393667 L324.975827,104.453767 L341.753139,104.453767 L341.753139,129.816867 L270.974966,129.816867 L270.974966,104.453767 L282.146483,104.453767 L282.146483,65.9990333 L270.974966,65.9990333 L270.974966,40.6359333 L323.11465,40.6359333 L323.11465,58.2673 C327.1754,47.6893667 337.500928,38.7916667 347.66171,38.7916667 C362.729232,38.7916667 372.039572,47.5253333 372.039572,59.1096333 C372.039572,71.5362667 364.256466,77.7518 354.603278,77.7518 Z M424.522104,131.6567 C395.571445,131.6567 372.039572,114.0209 372.039572,85.3062 C372.039572,56.4186 395.571445,38.7916667 424.522104,38.7916667 C453.468311,38.7916667 477.004636,56.4230333 477.004636,85.3062 C477.000183,114.025333 453.468311,131.6567 424.522104,131.6567 Z M431.802068,71.0353 C431.802068,65.1522667 429.771693,60.7854333 424.522104,60.7854333 C419.272515,60.7854333 417.068489,65.1478333 417.068489,71.0353 L417.068489,99.5771 C417.068489,105.287233 419.272515,109.649633 424.522104,109.649633 C429.771693,109.649633 431.802068,105.287233 431.802068,99.5771 L431.802068,71.0353 Z M546.464846,129.812433 L546.464846,104.449333 L551.540785,104.449333 L551.540785,79.4231667 C551.540785,71.7003 551.037643,64.6468667 546.464846,64.6468667 C542.061247,64.6468667 537.6621,70.1929667 534.781283,81.4403333 L534.781283,104.4449 L539.692476,104.4449 L539.692476,129.808 L480.780422,129.808 L480.780422,104.4449 L491.951939,104.4449 L491.951939,65.9901667 L480.780422,65.9901667 L480.780422,40.6359333 L534.781283,40.6359333 L534.781283,59.7790667 C540.538465,49.0326667 552.391227,38.7916667 568.131089,38.7916667 C583.198611,38.7916667 594.20093,51.3823333 594.20093,68.1802333 L594.20093,104.453767 L605.550551,104.453767 L605.550551,129.816867 L546.464846,129.816867 L546.464846,129.812433 Z"/>
    <linearGradient id="logo-fallback-d" x1="50%" x2="50%" y1="100.002%" y2="0%">
      <stop offset="0%" stop-color="#FCB415"/>
      <stop offset="20.25%" stop-color="#FEBB12"/>
      <stop offset="63.62%" stop-color="#FFC50B"/>
      <stop offset="100%" stop-color="#FFC907"/>
    </linearGradient>
    <linearGradient id="logo-fallback-e" x1="7.679%" x2="100.38%" y1="94.213%" y2="27.512%">
      <stop offset="0%" stop-color="#E3973C"/>
      <stop offset="32.99%" stop-color="#E69B3B"/>
      <stop offset="100%" stop-color="#E9A03A"/>
    </linearGradient>
    <linearGradient id="logo-fallback-f" x1="50.001%" x2="50.001%" y1="-.69%" y2="101.179%">
      <stop offset="0%" stop-color="#F0A83D"/>
      <stop offset="45.08%" stop-color="#F7CD59"/>
      <stop offset="100%" stop-color="#FDF0A0"/>
    </linearGradient>
    <linearGradient id="logo-fallback-g" x1="31.07%" x2="58.545%" y1="14.624%" y2="65.968%">
      <stop offset="0%" stop-color="#F3C641"/>
      <stop offset="54.71%" stop-color="#F8D863"/>
      <stop offset="100%" stop-color="#FCE67A"/>
    </linearGradient>
    <linearGradient id="logo-fallback-h" x1="49.331%" x2="78.557%" y1="49.606%" y2="67.159%">
      <stop offset="0%" stop-color="#E59D3A"/>
      <stop offset="38.46%" stop-color="#ECB13C"/>
      <stop offset="74.37%" stop-color="#F0BF3E"/>
      <stop offset="100%" stop-color="#F2C43E"/>
    </linearGradient>
    <linearGradient id="logo-fallback-i" x1="-.004%" x2="100.004%" y1="50.001%" y2="50.001%">
      <stop offset="0%" stop-color="#E7A24E"/>
      <stop offset="57.45%" stop-color="#E9A140"/>
      <stop offset="100%" stop-color="#E9A03A"/>
    </linearGradient>
    <linearGradient id="logo-fallback-j" x1="30.106%" x2="75.664%" y1="54.639%" y2="44.034%">
      <stop offset="0%" stop-color="#EDA33D"/>
      <stop offset="60.02%" stop-color="#F1B253"/>
      <stop offset="100%" stop-color="#F4BF65"/>
    </linearGradient>
    <linearGradient id="logo-fallback-k" x1=".126%" x2="61.994%" y1="61.516%" y2="47.247%">
      <stop offset="0%" stop-color="#EDA53C"/>
      <stop offset="30.52%" stop-color="#F7CE44"/>
      <stop offset="100%" stop-color="#FBEB88"/>
    </linearGradient>
    <linearGradient id="logo-fallback-l" x1="-8.877%" x2="196.877%" y1="16.297%" y2="80.089%">
      <stop offset="0%" stop-color="#F6D253"/>
      <stop offset="4.92%" stop-color="#F7D65F"/>
      <stop offset="18.49%" stop-color="#F9DF78"/>
      <stop offset="33.34%" stop-color="#FBE68A"/>
      <stop offset="49.89%" stop-color="#FCEB96"/>
      <stop offset="69.51%" stop-color="#FDEF9E"/>
      <stop offset="100%" stop-color="#FDF0A0"/>
    </linearGradient>
    <linearGradient id="logo-fallback-m" x1="34.539%" x2="66.862%" y1="-23.86%" y2="101.653%">
      <stop offset="0%" stop-color="#F9E069"/>
      <stop offset="20.69%" stop-color="#F8DD67"/>
      <stop offset="41.23%" stop-color="#F5D461"/>
      <stop offset="61.73%" stop-color="#F0C457"/>
      <stop offset="82.06%" stop-color="#EAAF4A"/>
      <stop offset="100%" stop-color="#E3983D"/>
    </linearGradient>
    <linearGradient id="logo-fallback-n" x1="3.554%" x2="103.442%" y1="-35.022%" y2="66.043%">
      <stop offset="0%" stop-color="#FDF4A3"/>
      <stop offset="23.91%" stop-color="#FCF1A0"/>
      <stop offset="42.81%" stop-color="#FBEC97"/>
      <stop offset="60.01%" stop-color="#FAE588"/>
      <stop offset="76.19%" stop-color="#F8DB74"/>
      <stop offset="91.52%" stop-color="#F6CE57"/>
      <stop offset="100%" stop-color="#F4C642"/>
    </linearGradient>
  </defs>
  <g fill="none" fill-rule="evenodd" transform="translate(30 108)">
    <path fill="url(#logo-fallback-a)" fill-rule="nonzero" d="M120.825145,133 C83.7485317,133 53.7826846,107.805367 53.7826846,66.5 C53.7826846,21.1558667 90.5164496,0 110.833561,0 C125.224292,0 136.738657,5.87416667 142.491388,12.5906667 L142.491388,3.18756667 L182.101518,3.18756667 L182.101518,61.6056 L142.491388,61.6056 L142.491388,57.6023 C142.491388,42.6575333 137.749393,31.4057333 125.558235,31.4057333 C113.37153,31.4057333 108.63844,42.6575333 108.63844,57.6023 L108.63844,75.4021333 C108.63844,90.3513333 113.37153,101.603133 125.558235,101.603133 C137.749393,101.603133 142.491388,90.3513333 142.491388,75.4021333 L142.491388,70.8712667 L182.101518,70.8712667 C182.10597,110.664867 156.374525,133 120.825145,133 Z M256.357154,129.812433 L256.357154,104.449333 L261.433092,104.449333 L261.433092,79.4231667 C261.433092,71.7003 260.925499,64.6468667 256.357154,64.6468667 C251.949102,64.6468667 247.549956,70.1929667 244.67359,81.4403333 L244.67359,104.4449 L249.575878,104.4449 L249.575878,129.808 L190.668277,129.808 L190.668277,104.4449 L201.839794,104.4449 L201.839794,28.5418 L190.668277,28.5418 L190.668277,3.18313333 L244.67359,3.18313333 L244.67359,59.7790667 C250.426321,49.0326667 262.279082,38.7916667 278.023397,38.7916667 C293.086466,38.7916667 304.088786,51.3823333 304.088786,68.1802333 L304.088786,104.453767 L315.433953,104.453767 L315.433953,129.816867 L256.357154,129.816867 L256.357154,129.812433 Z M408.034209,77.7518 C395.16626,77.7518 394.658666,64.6513 388.736738,64.6513 C384.333139,64.6513 381.283123,69.6875667 378.406758,80.9393667 L378.406758,104.453767 L395.18407,104.453767 L395.18407,129.816867 L324.405897,129.816867 L324.405897,104.453767 L335.577414,104.453767 L335.577414,65.9990333 L324.405897,65.9990333 L324.405897,40.6359333 L376.545581,40.6359333 L376.545581,58.2673 C380.606331,47.6893667 390.931859,38.7916667 401.092641,38.7916667 C416.160163,38.7916667 425.470503,47.5253333 425.470503,59.1096333 C425.470503,71.5362667 417.687397,77.7518 408.034209,77.7518 Z M477.953035,131.6567 C449.002376,131.6567 425.470503,114.0209 425.470503,85.3062 C425.470503,56.4186 449.002376,38.7916667 477.953035,38.7916667 C506.899242,38.7916667 530.435567,56.4230333 530.435567,85.3062 C530.431114,114.025333 506.899242,131.6567 477.953035,131.6567 Z M485.232999,71.0353 C485.232999,65.1522667 483.202624,60.7854333 477.953035,60.7854333 C472.703446,60.7854333 470.49942,65.1478333 470.49942,71.0353 L470.49942,99.5771 C470.49942,105.287233 472.703446,109.649633 477.953035,109.649633 C483.202624,109.649633 485.232999,105.287233 485.232999,99.5771 L485.232999,71.0353 Z M599.895777,129.812433 L599.895777,104.449333 L604.971715,104.449333 L604.971715,79.4231667 C604.971715,71.7003 604.468574,64.6468667 599.895777,64.6468667 C595.492178,64.6468667 591.093031,70.1929667 588.212213,81.4403333 L588.212213,104.4449 L593.123407,104.4449 L593.123407,129.808 L534.211353,129.808 L534.211353,104.4449 L545.38287,104.4449 L545.38287,65.9901667 L534.211353,65.9901667 L534.211353,40.6359333 L588.212213,40.6359333 L588.212213,59.7790667 C593.969396,49.0326667 605.822158,38.7916667 621.56202,38.7916667 C636.629542,38.7916667 647.631861,51.3823333 647.631861,68.1802333 L647.631861,104.453767 L658.981481,104.453767 L658.981481,129.816867 L599.895777,129.816867 L599.895777,129.812433 Z"/>
    <g transform="translate(53.43)">
      <mask id="logo-fallback-c" fill="#fff">
        <use xlink:href="#logo-fallback-b"/>
      </mask>
      <path fill="#FFF" fill-rule="nonzero" d="M424.522104,60.7898667 C419.272515,60.7898667 417.068489,65.1478333 417.068489,71.0397333 L417.068489,99.5815333 C417.068489,105.2961 419.272515,109.6585 424.522104,109.6585 C429.771693,109.6585 431.802068,105.2961 431.802068,99.5815333 L431.802068,71.0397333 C431.802068,65.1478333 429.771693,60.7898667 424.522104,60.7898667 Z" mask="url(#logo-fallback-c)"/>
    </g>
    <g fill-rule="nonzero" transform="translate(0 4.433)">
      <polygon fill="url(#logo-fallback-d)" points="94.092 34.842 58.146 34.842 47.046 .931 35.941 34.842 0 34.842 29.071 55.794 17.971 89.695 47.046 68.752 76.126 89.695 65.017 55.794"/>
      <rect width="1" height="1" x="47.046" y="49.999" fill="#A9DDDE"/>
      <polygon fill="url(#logo-fallback-e)" points="47.046 49.999 65.017 55.794 94.092 34.842"/>
      <polygon fill="url(#logo-fallback-f)" points="94.092 34.842 58.146 34.842 47.046 49.999"/>
      <rect width="1" height="1" x="47.046" y="49.999" fill="#A9DDDE"/>
      <polygon fill="url(#logo-fallback-g)" points="47.046 49.999 29.071 55.794 17.971 89.695"/>
      <polygon fill="url(#logo-fallback-h)" points="17.971 89.695 47.046 68.752 47.046 49.999"/>
      <polygon fill="url(#logo-fallback-i)" points="47.046 49.999 47.046 49.999 58.146 34.842 47.046 .931"/>
      <polygon fill="url(#logo-fallback-j)" points="47.046 49.999 47.046 49.999 76.126 89.695 65.017 55.794"/>
      <polygon fill="url(#logo-fallback-k)" points="47.046 49.999 47.046 68.752 76.126 89.695"/>
      <polygon fill="url(#logo-fallback-l)" points="47.046 .931 35.941 34.842 47.046 49.999"/>
      <polygon fill="url(#logo-fallback-m)" points="47.046 49.999 0 34.842 29.071 55.794"/>
      <polygon fill="url(#logo-fallback-n)" points="47.046 49.999 35.941 34.842 0 34.842"/>
    </g>
  </g>
</svg>
